<svg width="132" height="132" viewBox="0 0 132 132" fill="none" xmlns="http://www.w3.org/2000/svg">
<line x1="32.4168" y1="88.9169" x2="32.4168" y2="33.0002" stroke="black" stroke-width="3"/>
<line x1="69.9547" y1="98.4571" x2="30.7819" y2="30.0792" stroke="black" stroke-width="3"/>
<line x1="63.889" y1="87.2721" x2="107.889" y2="29.3429" stroke="black" stroke-width="3"/>
<path d="M99.0002 41.2502L99.0002 121.917" stroke="black" stroke-width="3"/>
<path d="M122.629 99.9004C131.254 85.4913 134.063 68.3359 130.483 51.9283C126.902 35.5207 117.201 21.0952 103.357 11.5898C89.5119 2.08443 72.5643 -1.78577 55.9658 0.767464C39.3673 3.3207 24.3664 12.1053 14.0184 25.3321C3.67036 38.5589 -1.24637 55.2329 0.269613 71.9581C1.7856 88.6833 9.62027 104.202 22.1779 115.352C34.7355 126.503 51.0715 132.447 67.8585 131.974C84.6456 131.501 100.621 124.647 112.531 112.807L111.135 111.403C99.5824 122.887 84.0862 129.536 67.8028 129.995C51.5193 130.454 35.6734 124.688 23.4925 113.872C11.3117 103.055 3.71203 88.0028 2.24152 71.7794C0.771019 55.556 5.54025 39.3821 15.5778 26.5522C25.6154 13.7222 40.1663 5.20108 56.2669 2.72444C72.3674 0.247803 88.8065 4.0019 102.236 13.2221C115.665 22.4423 125.075 36.4351 128.548 52.3505C132.021 68.2658 129.297 84.9066 120.93 98.8834L122.629 99.9004Z" fill="black"/>
<path d="M114.743 109.553L115.079 115.845L108.468 108.986L114.743 109.553Z" fill="black"/>
</svg>
